<?xml version="1.0" standalone="no"?>
<!DOCTYPE svg PUBLIC "-//W3C//DTD SVG 20010904//EN"
 "http://www.w3.org/TR/2001/REC-SVG-20010904/DTD/svg10.dtd">
<svg version="1.0" xmlns="http://www.w3.org/2000/svg"
 width="300.000000pt" height="225.000000pt" viewBox="0 0 300.000000 225.000000"
 preserveAspectRatio="xMidYMid meet">
<metadata>
Created by potrace 1.10, written by Peter Selinger 2001-2011
</metadata>
<g transform="translate(0.000000,225.000000) scale(0.100000,-0.100000)"
fill="#000000" stroke="none">
<path d="M260 1772 c0 -16 9 -22 38 -27 20 -3 42 -9 47 -13 6 -4 51 -89 100
-189 l90 -183 173 0 c96 0 172 3 170 8 -35 76 -157 305 -175 329 -14 18 -50
45 -81 60 -52 25 -67 28 -209 31 -149 4 -153 4 -153 -16z m325 -33 c25 -7 55
-27 80 -53 43 -46 160 -269 150 -286 -7 -11 -220 -13 -247 -2 -13 5 -188 329
-188 348 0 9 168 3 205 -7z"/>
<path d="M1172 1774 c3 -14 23 -25 125 -65 l22 -8 -20 -42 c-11 -22 -47 -99
-79 -170 l-59 -129 33 0 c32 0 33 1 106 163 40 89 77 167 81 173 5 6 40 22 79
35 51 17 70 28 70 41 0 17 -14 18 -181 18 -161 0 -180 -2 -177 -16z m205 -44
c-14 -11 -28 -20 -31 -20 -4 0 -16 9 -28 20 l-22 20 53 0 54 0 -26 -20z"/>
<path d="M1612 1773 c2 -12 19 -21 53 -28 l50 -11 3 -187 2 -187 158 0 157 0
-3 190 -3 190 67 0 c111 0 190 -53 236 -158 21 -47 29 -147 15 -194 l-7 -28
159 0 c109 0 162 4 167 11 4 7 7 42 7 78 1 145 -87 248 -257 300 -96 29 -249
41 -549 41 -241 0 -258 -1 -255 -17z m386 -200 l-3 -178 -109 -3 c-67 -2 -113
1 -121 8 -10 8 -14 54 -15 181 l-1 169 126 0 125 0 -2 -177z m372 156 c30 -6
80 -24 110 -39 108 -55 159 -129 160 -232 0 -70 -1 -70 -145 -66 l-100 3 -6
65 c-3 36 -11 84 -18 107 -12 43 -69 127 -104 152 -14 10 -16 15 -6 21 13 8
16 8 109 -11z"/>
<path d="M250 1300 c0 -5 6 -10 13 -10 7 0 36 -47 65 -103 44 -88 52 -112 52
-160 0 -43 -4 -58 -17 -66 -13 -8 3 -10 62 -10 65 0 76 2 58 11 -20 9 -23 19
-23 64 0 43 10 74 49 159 32 68 55 105 65 105 9 0 16 5 16 10 0 6 -23 10 -51
10 -31 0 -48 -4 -44 -10 3 -5 13 -10 21 -10 8 0 14 -4 14 -9 0 -14 -71 -163
-76 -158 -3 2 -22 41 -44 86 -29 59 -46 84 -65 91 -34 13 -95 13 -95 0z m149
-143 c23 -43 31 -70 30 -105 l-1 -47 -12 55 c-7 30 -24 78 -39 107 -48 94 -29
85 22 -10z"/>
<path d="M1593 1296 c15 -12 17 -32 17 -169 0 -138 -2 -157 -17 -167 -32 -19
206 -7 243 13 38 19 58 66 44 102 -11 28 -58 55 -96 55 l-27 0 21 -23 c27 -29
29 -86 5 -115 -10 -12 -33 -22 -51 -24 l-33 -3 -2 83 c-2 80 -2 82 22 82 72 0
151 45 151 85 0 63 -72 95 -212 95 -71 -1 -81 -3 -65 -14z m169 -23 c24 -22
24 -84 0 -106 -10 -9 -29 -18 -42 -19 -24 -3 -24 -1 -25 69 0 71 1 73 24 73
14 0 33 -7 43 -17z m-101 -143 c0 -68 -3 -125 -6 -128 -3 -3 -5 55 -5 128 0
73 2 131 5 128 3 -3 6 -61 6 -128z"/>
<path d="M2460 1300 c0 -5 7 -10 15 -10 13 0 15 -24 15 -160 0 -141 -2 -160
-17 -169 -14 -8 1 -10 56 -11 63 0 72 2 57 13 -13 10 -17 24 -14 57 l3 45 28
-47 c33 -57 51 -68 109 -68 43 0 43 1 21 18 -22 17 -103 136 -103 150 0 13 65
72 78 72 7 0 12 5 12 10 0 6 -20 10 -45 10 -25 0 -45 -4 -45 -10 0 -5 7 -10
15 -10 23 0 18 -11 -30 -63 l-45 -49 0 106 c0 94 -2 106 -19 116 -25 13 -91
13 -91 0z m86 -260 l-13 -33 -7 37 c-4 20 -4 47 0 58 6 21 7 21 20 -4 12 -22
12 -31 0 -58z"/>
<path d="M620 1190 c-11 -11 -20 -26 -20 -33 0 -19 21 -37 42 -37 14 0 18 8
18 40 0 36 3 40 24 40 35 0 56 -26 56 -69 l0 -37 -72 -15 c-69 -13 -73 -16
-82 -47 -8 -27 -6 -36 13 -56 34 -36 87 -43 123 -16 27 20 31 20 47 6 10 -9
34 -16 57 -15 35 0 37 1 17 11 -21 10 -23 18 -23 97 0 91 -11 116 -57 140 -37
19 -120 14 -143 -9z m102 -212 c-31 -31 -52 -14 -52 42 0 48 1 49 33 52 31 3
32 1 35 -36 2 -28 -2 -44 -16 -58z"/>
<path d="M880 1201 c0 -5 8 -11 18 -13 15 -3 17 -17 18 -110 1 -99 0 -107 -20
-116 -16 -8 -3 -11 59 -11 65 0 76 2 58 11 -21 10 -23 18 -23 100 0 75 3 91
20 108 31 31 50 26 50 -15 0 -28 4 -35 20 -35 12 0 25 10 32 25 9 21 8 28 -8
46 -22 24 -74 21 -105 -7 -11 -9 -19 -12 -19 -7 0 12 -52 33 -81 33 -11 0 -19
-4 -19 -9z"/>
<path d="M1171 1184 c-24 -30 -14 -64 19 -64 17 0 20 7 20 40 0 36 3 40 24 40
31 0 56 -25 56 -55 0 -13 2 -29 5 -37 4 -10 -15 -17 -72 -28 -72 -14 -77 -17
-85 -45 -11 -40 17 -77 66 -89 32 -7 43 -5 67 13 27 20 31 21 51 6 13 -8 38
-15 58 -14 32 0 33 1 13 11 -21 10 -23 18 -23 95 0 46 -5 93 -10 104 -16 29
-64 49 -119 49 -41 0 -53 -4 -70 -26z m122 -152 c-13 -85 -77 -93 -71 -8 3 37
6 42 33 47 41 8 45 4 38 -39z"/>
<path d="M1920 1201 c0 -6 7 -11 15 -11 12 0 15 -19 15 -110 0 -93 -3 -110
-17 -119 -13 -8 3 -10 62 -10 65 0 76 2 58 11 -21 10 -23 17 -23 104 0 85 2
94 22 108 35 25 48 20 48 -19 0 -19 4 -35 9 -35 26 0 41 15 41 41 0 48 -58 65
-101 30 -21 -17 -26 -18 -40 -5 -21 19 -89 31 -89 15z"/>
<path d="M2243 1200 c-13 -5 -32 -24 -43 -42 -29 -46 -24 -137 10 -173 28 -30
90 -49 130 -40 35 8 73 48 67 72 -3 15 -6 13 -15 -10 -24 -58 -101 -62 -121
-6 -19 53 -15 65 22 65 17 0 53 4 80 8 44 7 47 9 47 37 0 41 -15 66 -50 84
-32 16 -92 19 -127 5z m87 -20 c6 -12 10 -38 8 -58 -3 -35 -5 -37 -42 -40
l-39 -3 7 47 c9 71 43 98 66 54z m-103 -122 c-3 -22 -4 -21 -11 4 -5 16 -5 36
0 45 7 16 8 15 11 -4 3 -13 3 -33 0 -45z"/>
<path d="M740 705 l0 -184 -37 -10 c-21 -5 -47 -11 -58 -13 -11 -2 -20 -10
-20 -18 0 -13 39 -15 273 -18 256 -2 273 -1 270 15 -2 10 -12 19 -23 21 -11 2
-37 8 -57 13 l-38 10 0 184 0 185 -155 0 -155 0 0 -185z m275 133 c2 -13 6
-94 7 -181 l3 -157 -130 0 -130 0 3 167 c1 93 4 174 7 181 3 9 36 12 119 12
112 0 116 -1 121 -22z"/>
<path d="M1718 703 l-3 -187 -50 -11 c-36 -7 -51 -15 -53 -29 -4 -18 8 -18
360 -13 396 6 459 13 573 66 128 59 186 143 193 278 l5 83 -161 0 -160 0 -4
-87 c-7 -135 -51 -218 -143 -266 -31 -16 -63 -22 -143 -25 l-103 -4 3 191 3
191 -157 0 -158 0 -2 -187z m282 -26 l5 -177 -132 0 c-108 0 -131 3 -127 14 3
7 6 83 7 167 2 85 6 160 11 167 6 9 37 12 119 10 l112 -3 5 -178z m704 118
c-1 -94 -47 -167 -140 -221 -51 -30 -170 -64 -224 -64 l-40 0 45 41 c58 54 95
130 102 211 9 101 6 99 141 96 l117 -3 -1 -60z"/>
</g>
</svg>
